# xmcd
#
# Track frame offsets:
#	150
#	35029
#	53022
#	67902
#	87546
#	104782
#	125067
#	145940
#	170868
#	188914
#	205827
#	223204
#	240335
#	259866
#	291567
#	318025
#
# Disc length: 4701 seconds
#
# Revision: 1
# Processed by: cddbd v1.5.2PL0 Copyright (c) Steve Scherf et al.
# Submitted via: audiograbber 1.83.01
#
DISCID=03125b10
DTITLE=Sonique - Another World
DYEAR=1900
DGENRE=
TTITLE0=Another World (Sonique on Tomcraft)
TTITLE1=Sky
TTITLE2=Can`t make up my mind
TTITLE3=Magic
TTITLE4=It Feels So Good
TTITLE5=Will you want me
TTITLE6=Freefaling (Mum`s favourite)
TTITLE7=Right here you an`l
TTITLE8=Seriously
TTITLE9=You`re the reason
TTITLE10=Alive
TTITLE11=Please
TTITLE12=Born To Be Free
TTITLE13=Alive (Tomcraft mix)
TTITLE14=Alive (Benny Benassi Sfaction First mix)
TTITLE15=Another World(Sonique on Tomcraft)/Matthew Bradley pres.Mashtronic Rem
TTITLE15=ix/
EXTD=
EXTT0=
EXTT1=
EXTT2=
EXTT3=
EXTT4=
EXTT5=
EXTT6=
EXTT7=
EXTT8=
EXTT9=
EXTT10=
EXTT11=
EXTT12=
EXTT13=
EXTT14=
EXTT15=
PLAYORDER=
